grf
version=1
nRows=6
nColumns=37
inDegrees=no
endheader
time	ground_force_1_vx	ground_force_1_vy	ground_force_1_vz	ground_force_1_px	ground_force_1_py	ground_force_1_pz	ground_moment_1_mx	ground_moment_1_my	ground_moment_1_mz	ground_force_2_vx	ground_force_2_vy	ground_force_2_vz	ground_force_2_px	ground_force_2_py	ground_force_2_pz	ground_moment_2_mx	ground_moment_2_my	ground_moment_2_mz	ground_force_3_vx	ground_force_3_vy	ground_force_3_vz	ground_force_3_px	ground_force_3_py	ground_force_3_pz	ground_moment_3_mx	ground_moment_3_my	ground_moment_3_mz	ground_force_4_vx	ground_force_4_vy	ground_force_4_vz	ground_force_4_px	ground_force_4_py	ground_force_4_pz	ground_moment_4_mx	ground_moment_4_my	ground_moment_4_mz
      0.00000000	      0.00000000	     -0.00000000	      0.00000000	      0.00000000	      0.00000000	      0.00000000	      0.00000000	      0.00000000	      0.00000000	      3.21194673	     90.55641174	   -529.77075195	   -349.27895459	  -1204.03329077	      0.00000000	      0.00000000	     -0.00000000	   2521.82991367	     -1.06224137	    -89.20719900	   -464.33551025	   -349.10778712	   -621.70483949	      0.00000000	      0.00000000	     -0.00000000	  -4102.36636691	      0.00000000	     -0.00000000	      0.00000000	      0.00000000	      0.00000000	      0.00000000	      0.00000000	      0.00000000	      0.00000000
      0.01000000	      0.00000000	     -0.00000000	      0.00000000	      0.00000000	      0.00000000	      0.00000000	      0.00000000	      0.00000000	      0.00000000	      3.47900581	     90.28909302	   -530.82379150	   -348.92895668	  -1204.10129393	      0.00000000	      0.00000000	      0.00000000	   2516.05085423	     -0.71071229	    -89.73078149	   -464.72082520	   -349.89695366	   -622.20215519	      0.00000000	      0.00000000	     -0.00000000	  -4228.86193293	      0.00000000	     -0.00000000	      0.00000000	      0.00000000	      0.00000000	      0.00000000	      0.00000000	      0.00000000	      0.00000000
      0.02000000	      0.00000000	     -0.00000000	      0.00000000	      0.00000000	      0.00000000	      0.00000000	      0.00000000	      0.00000000	      0.00000000	      2.76715136	     89.75529480	   -528.35461426	   -348.79438096	  -1204.61876089	      0.00000000	      0.00000000	      0.00000000	   2342.30230055	     -0.53137448	    -89.56356044	   -465.75765991	   -349.64216778	   -622.08489361	      0.00000000	      0.00000000	     -0.00000000	  -4199.53030328	      0.00000000	     -0.00000000	      0.00000000	      0.00000000	      0.00000000	      0.00000000	      0.00000000	      0.00000000	      0.00000000
      0.03000000	      0.00000000	     -0.00000000	      0.00000000	      0.00000000	      0.00000000	      0.00000000	      0.00000000	      0.00000000	      0.00000000	      2.94653034	     89.93429565	   -526.94445801	   -349.68542431	  -1203.69922295	      0.00000000	      0.00000000	      0.00000000	   2430.92543460	     -0.52830736	    -90.44062038	   -466.81573486	   -349.53331085	   -622.22016721	      0.00000000	      0.00000000	     -0.00000000	  -4086.14656100	      0.00000000	     -0.00000000	      0.00000000	      0.00000000	      0.00000000	      0.00000000	      0.00000000	      0.00000000	      0.00000000
      0.04000000	      0.00000000	     -0.00000000	      0.00000000	      0.00000000	      0.00000000	      0.00000000	      0.00000000	      0.00000000	      0.00000000	      2.94394684	     89.30867004	   -526.59130859	   -349.16096022	  -1203.79977449	      0.00000000	      0.00000000	      0.00000000	   2438.67798314	     -0.88307799	    -90.17643730	   -467.85784912	   -350.07797615	   -621.66667112	      0.00000000	      0.00000000	     -0.00000000	  -4180.14299908	      0.00000000	     -0.00000000	      0.00000000	      0.00000000	      0.00000000	      0.00000000	      0.00000000	      0.00000000	      0.00000000
      0.05000000	      0.00000000	     -0.00000000	      0.00000000	      0.00000000	      0.00000000	      0.00000000	      0.00000000	      0.00000000	      0.00000000	      2.58846855	     89.92848206	   -524.11090088	   -348.20602040	  -1203.80156441	      0.00000000	      0.00000000	      0.00000000	   2507.26046726	     -0.53281560	    -89.64813991	   -467.51617432	   -349.82919019	   -622.57510787	      0.00000000	      0.00000000	     -0.00000000	  -4278.91053940	      0.00000000	     -0.00000000	      0.00000000	      0.00000000	      0.00000000	      0.00000000	      0.00000000	      0.00000000	      0.00000000
